<svg width="590mm" height="550mm" version="1.1" viewBox="0 0 590 550" xmlns="http://www.w3.org/2000/svg"><g transform="translate(0 .9539)"><g transform="matrix(1.8682 0 0 2.1046 -377.97 -308.26)"><rect transform="rotate(-45)" x="33.648" y="372.34" width="104.75" height="104.75" fill="#fff" fill-opacity=".34673"/><rect transform="rotate(-45)" x="23.479" y="362.17" width="125.08" height="125.08" fill="none" stroke="#f00" stroke-opacity=".19216" stroke-width="6.6144"/><g transform="matrix(.94927 0 0 1.0534 0 -3.2273)" fill="#666" stroke-width=".22195" aria-label="NÃO ENCONTRADO"><path d="m361.2 212.42h3.4229l4.4667 6.5625v-6.5625h3.4552v11.863h-3.4552l-4.4424-6.5139v6.5139h-3.4471z"/><path d="m382.3 222.32h-4.1754l-0.57452 1.9582h-3.7465l4.4586-11.863h3.9974l4.4586 11.863h-3.8355zm-0.76872-2.5651-1.3109-4.2644-1.3028 4.2644zm0.33985-10.277h1.2785q8e-3 0.21039 8e-3 0.36414 0 0.89819-0.45314 1.3918-0.45315 0.4936-1.1652 0.4936-0.51788 0-1.5698-0.42887-0.63926-0.25894-0.88202-0.25894-0.23466 0-0.36413 0.14565-0.12947 0.14566-0.13756 0.51788h-1.2623q-8e-3 -0.1942-8e-3 -0.33985 0-0.86583 0.47742-1.3756t1.1329-0.50979q0.28321 0 0.53406 0.0647t0.92247 0.34795q0.67972 0.28321 0.98721 0.28321 0.21848 0 0.34795-0.14565 0.13756-0.15375 0.15374-0.55025z"/><path d="m387.42 218.36q0-2.905 1.6184-4.5234t4.5072-1.6184q2.9616 0 4.5638 1.5941 1.6022 1.586 1.6022 4.4505 0 2.0796-0.70399 3.4148-0.6959 1.3271-2.023 2.0715-1.319 0.73636-3.2934 0.73636-2.0068 0-3.3258-0.63926-1.3109-0.63925-2.1282-2.023-0.81728-1.3837-0.81728-3.4633zm3.6656 0.0162q0 1.7964 0.66353 2.5813 0.67163 0.78491 1.8207 0.78491 1.1814 0 1.8288-0.76873 0.64735-0.76872 0.64735-2.7593 0-1.675-0.67971-2.4437-0.67163-0.77682-1.8288-0.77682-1.1086 0-1.7802 0.78491-0.67163 0.78491-0.67163 2.5975z"/><path d="m316.05 233.13h9.8235v2.5328h-6.1498v1.8854h5.7048v2.4195h-5.7048v2.3386h6.3278v2.6865h-10.002z"/><path d="m328.06 233.13h3.4228l4.4667 6.5625v-6.5625h3.4552v11.863h-3.4552l-4.4424-6.5139v6.5139h-3.4471z"/><path d="m349.75 240.15 3.2125 0.97102q-0.32367 1.3513-1.0196 2.2576t-1.7317 1.3675q-1.0277 0.46123-2.6218 0.46123-1.934 0-3.1639-0.55834-1.2219-0.56643-2.112-1.9825-0.8901-1.4161-0.8901-3.6252 0-2.9454 1.5617-4.5234 1.5698-1.586 4.4343-1.586 2.2414 0 3.52 0.90629 1.2866 0.90629 1.9097 2.7836l-3.2368 0.72017q-0.16993-0.54215-0.35604-0.793-0.30749-0.42077-0.75254-0.64735-0.44506-0.22657-0.9953-0.22657-1.2462 0-1.9097 1.0034-0.5017 0.74445-0.5017 2.3386 0 1.9744 0.5988 2.7108 0.5988 0.72827 1.6831 0.72827 1.0519 0 1.586-0.59071 0.54216-0.5907 0.78491-1.7155z"/><path d="m354.28 239.07q0-2.905 1.6184-4.5234t4.5072-1.6184q2.9616 0 4.5638 1.5941 1.6022 1.586 1.6022 4.4505 0 2.0796-0.70399 3.4148-0.6959 1.3271-2.023 2.0715-1.319 0.73636-3.2934 0.73636-2.0068 0-3.3258-0.63926-1.3109-0.63925-2.1282-2.023t-0.81728-3.4633zm3.6656 0.0162q0 1.7964 0.66353 2.5813 0.67162 0.78491 1.8207 0.78491 1.1814 0 1.8288-0.76873 0.64735-0.76872 0.64735-2.7593 0-1.675-0.67972-2.4437-0.67163-0.77682-1.8288-0.77682-1.1086 0-1.7802 0.78491t-0.67162 2.5975z"/><path d="m368.58 233.13h3.4229l4.4667 6.5625v-6.5625h3.4552v11.863h-3.4552l-4.4424-6.5139v6.5139h-3.4471z"/><path d="m381.55 233.13h11.142v2.9292h-3.7384v8.9334h-3.6656v-8.9334h-3.7384z"/><path d="m394.41 245v-11.863h6.1094q1.6993 0 2.5975 0.2913 0.8982 0.29131 1.4484 1.0843 0.55025 0.78491 0.55025 1.9178 0 0.98721-0.42078 1.7074-0.42077 0.71208-1.1571 1.1571-0.46933 0.28322-1.2866 0.46933 0.65544 0.21848 0.95484 0.43696 0.2023 0.14565 0.58262 0.62307 0.3884 0.47742 0.51787 0.73636l1.7721 3.439h-4.143l-1.9582-3.6252q-0.37223-0.70399-0.66353-0.91438-0.3965-0.27512-0.8982-0.27512h-0.32367v4.8146zm3.6818-7.0561h1.5455q0.25085 0 0.97102-0.16183 0.36414-0.0728 0.59071-0.37223 0.23466-0.2994 0.23466-0.68781 0-0.57452-0.36413-0.88201t-1.3675-0.30749h-1.6103z"/><path d="m414.54 243.04h-4.1754l-0.57453 1.9582h-3.7465l4.4586-11.863h3.9974l4.4586 11.863h-3.8355zm-0.76872-2.5651-1.3109-4.2644-1.3028 4.2644z"/><path d="m420.17 233.13h5.4458q1.6103 0 2.5975 0.43696 0.9953 0.43696 1.6426 1.2542 0.64735 0.81727 0.93865 1.9016 0.29131 1.0843 0.29131 2.2981 0 1.9016-0.43696 2.9535-0.42887 1.0438-1.1976 1.7559-0.76872 0.704-1.6507 0.93866-1.2057 0.32367-2.1848 0.32367h-5.4458zm3.6656 2.6865v6.4816h0.8982q1.149 0 1.6346-0.25084 0.48551-0.25894 0.76063-0.89011 0.27512-0.63925 0.27512-2.0634 0-1.8854-0.61498-2.5813t-2.0392-0.6959z"/><path d="m432.54 239.07q0-2.905 1.6184-4.5234t4.5072-1.6184q2.9616 0 4.5638 1.5941 1.6022 1.586 1.6022 4.4505 0 2.0796-0.704 3.4148-0.6959 1.3271-2.023 2.0715-1.319 0.73636-3.2934 0.73636-2.0068 0-3.3258-0.63926-1.3109-0.63925-2.1282-2.023t-0.81728-3.4633zm3.6656 0.0162q0 1.7964 0.66354 2.5813 0.67162 0.78491 1.8207 0.78491 1.1814 0 1.8288-0.76873 0.64734-0.76872 0.64734-2.7593 0-1.675-0.67971-2.4437-0.67163-0.77682-1.8288-0.77682-1.1086 0-1.7802 0.78491-0.67163 0.78491-0.67163 2.5975z"/></g></g><g transform="matrix(2.2787 0 0 2.5672 -526.25 -430.3)"><g transform="matrix(1 0 0 .8368 0 58.815)" fill="#800000" stroke-width=".81383"><path d="m231.47 338.16h11.512l21.532 46.735h-11.512z"/><path d="m253.57 338.16h192.39l21.532 46.735h-192.39z"/><path d="m456.54 338.16h11.512l21.532 46.735h-11.512z"/></g><text x="322.15878" y="375.056" fill="#ffffff" font-family="sans-serif" font-size="38.324px" letter-spacing="0px" stroke-opacity=".19095" stroke-width=".45285" word-spacing="0px" style="line-height:1.25" xml:space="preserve"><tspan x="322.15878" y="375.056" fill="#ffffff" font-family="'Arial Black'" stroke-opacity=".19095" stroke-width=".45285">404</tspan></text></g></g></svg>
