<svg width="512" height="512" version="1.1" viewBox="0 0 135.47 135.47" xmlns="http://www.w3.org/2000/svg"><g transform="translate(0 -161.53)"><g transform="matrix(.15583 0 0 .15583 51.499 197.91)" fill="#ccc"><g transform="matrix(.35278 0 0 -.35278 119.22 535.56)"><path d="m0 0c0-8.998 10.311-9.03 12.17 0 13.699 66.469 34.519 110.77 67.066 153.8l-73.186-0.045c-3.339 0-6.05-2.706-6.05-6.049zm537.43 922.64c-3.008 9.715-11.419 10.361-11.333 0.179 0.828-96.103-26.812-178.68-202.22-354.09l-138.74-138.62c-63.14-63.139-119.91-120.8-153.47-178.42h137.02c5.252 5.266 10.634 10.647 16.204 16.218l199.04 199.24c165.77 165.77 188.88 341.12 153.49 455.49m-186.01-586.16-166.27-166.4c-100.64-100.64-185.14-187.36-185.14-282.19l0.094-26.408c0-7.169 8.918-8.299 11.66-0.793 31.072 84.896 134.89 175.52 325.32 143.4 0 0 829.61-143.36 836.58-143.97 8.098-0.713 12.109 7.264 6.883 13.479-3.141 3.734-386.12 386.69-386.12 386.69zm-600.18-182.69c-3.339 0-6.049 2.706-6.049 6.05v85.841c0 3.343 2.71 6.049 6.049 6.049l145.2-0.035c3.339 0 6.05 2.707 6.05 6.049-0.383 77.108-58.506 129.5-291.38 88.965l-502.85-86.424s-382.98-382.96-386.12-386.69c-5.225-6.215-1.217-14.192 6.883-13.479 6.972 0.614 836.58 143.97 836.58 143.97 190.43 32.121 294.25-58.506 325.32-143.4 2.747-7.506 11.665-6.376 11.665 0.793 0 5.176 0.022 286.27 0.022 286.27 0 3.343-2.707 6.049-6.049 6.049zm-231.78 1199.8c-165.77-165.77-188.88-341.12-153.49-455.49 3.007-9.715 11.418-10.36 11.333-0.179-0.829 96.103 26.81 178.68 202.22 354.09l378.14 378.02c100.64 100.64 185.14 187.36 185.14 282.19v147.92c0 8.998-10.311 9.029-12.171 0-24.875-120.71-73.159-168.34-172.73-267.91zm623.7 298.86v148.92c0 8.998-10.31 9.03-12.171 0-24.875-120.71-73.034-169.09-172.6-268.66l-397.14-396.81c-192.73-192.73-226.08-379.26-128.05-499.12 6.533-7.99 13.563-3.208 9.297 6.439-64.801 146.63 90.601 302.1 164.59 376.09l350.93 350.94c100.64 100.64 185.14 187.36 185.14 282.19m-571.02-765.66c-192.74-192.75-104.12-378.9 8.308-430.14 9.863-4.494 13.78 3.509 6.238 10.042-90.153 78.099-62.777 209.47 50.592 322.84l320.33 320.34c100.64 100.64 185.14 187.36 185.14 282.19v147.91c0 8.998-10.31 9.03-12.171 0-24.875-120.71-73.052-168.14-172.62-267.7zm427.51-479.1v-148.92c0-8.998 10.31-9.03 12.17 0 24.875 120.71 73.034 169.09 172.6 268.66l157.75 157.41c192.73 192.73 226.08 379.26 128.05 499.12-6.533 7.99-13.564 3.209-9.299-6.439 64.803-146.63-90.599-302.1-164.59-376.09l-111.53-111.54c-100.64-100.64-185.14-187.36-185.14-282.19m185.19 380.17c-99.567-99.567-147.74-147-172.62-267.7-1.86-9.029-12.17-8.998-12.17 0v147.92c0 94.835 84.501 181.55 185.14 282.19l80.935 80.939c113.37 113.37 140.74 244.74 50.593 322.84-7.542 6.533-3.625 14.539 6.237 10.042 112.42-51.24 201.05-237.39 8.309-430.14z" fill="#ccc"/></g><g transform="matrix(.35278 0 0 -.35278 514.12 485.19)"><path d="m0 0c8.736 0 13.949 4.872 13.949 11.936 0 7.892-4.368 11.253-14.111 11.253h-8.234v-23.189zm-21.159 33.939h21.5c18.302 0 26.534-7.226 26.534-21.679 0-10.571-6.382-16.45-13.104-19.145l19.486-32.592h-14.436l-16.807 29.068h-10.41v-29.068h-12.763zm75.089-36.619c0 29.052-21.679 52.744-52.078 52.744-30.4 0-52.241-22.003-52.241-52.744 0-29.067 21.841-52.743 52.241-52.743 28.726 0 52.078 22.004 52.078 52.743m-113.72 0c0 35.775 25.868 61.643 61.643 61.643 34.101 0 61.642-25.868 61.642-61.643 0-35.79-25.868-61.642-61.642-61.642-35.775 0-61.643 25.852-61.643 61.642" fill="#ccc"/></g></g></g></svg>
