<svg class="svg-inline--fa fa-github fa-w-16" aria-hidden="true" data-icon="github" data-prefix="fab" role="img" version="1.1" viewBox="0 0 496 512" xmlns="http://www.w3.org/2000/svg"><path d="m487.22 256.92a237.66 237.66 0 0 1-237.66 237.66 237.66 237.66 0 0 1-237.66-237.66 237.66 237.66 0 0 1 237.66-237.66 237.66 237.66 0 0 1 237.66 237.66z" fill="#808080" stroke="#fff" stroke-width="4.8046"/><g transform="matrix(3.2001 0 0 3.2001 2725.9 -662.28)" fill="#ececec" aria-label="LOGO"><path d="m-834.49 272.93h8.8477v21.582h13.809v7.0508h-22.656z"/><path d="m-809.59 287.26q0-7.0117 3.9062-10.918t10.879-3.9062q7.1484 0 11.016 3.8477 3.8672 3.8281 3.8672 10.742 0 5.0195-1.6992 8.2422-1.6797 3.2031-4.8828 5-3.1836 1.7774-7.9492 1.7774-4.8438 0-8.0273-1.543-3.1641-1.543-5.1367-4.8828t-1.9726-8.3594zm8.8476 0.0391q0 4.3359 1.6016 6.2305 1.6211 1.8945 4.3945 1.8945 2.8516 0 4.4141-1.8555t1.5625-6.6602q0-4.043-1.6406-5.8984-1.6211-1.875-4.4141-1.875-2.6758 0-4.2969 1.8945t-1.6211 6.2695z"/><path d="m-760.72 291.19v-5.957h13.672v12.207q-3.9258 2.6758-6.9531 3.6524-3.0078 0.95703-7.1484 0.95703-5.0977 0-8.3203-1.7383-3.2031-1.7383-4.9805-5.1758-1.7578-3.4375-1.7578-7.8906 0-4.6875 1.9336-8.1445 1.9336-3.4766 5.6641-5.2734 2.9102-1.3867 7.832-1.3867 4.7461 0 7.0898 0.85938 2.3633 0.85937 3.9062 2.6758 1.5625 1.7969 2.3438 4.5703l-8.5352 1.5234q-0.52735-1.6211-1.7969-2.4805-1.25-0.85938-3.2031-0.85938-2.9102 0-4.6484 2.0312-1.7188 2.0117-1.7188 6.3867 0 4.6484 1.7383 6.6406 1.7578 1.9922 4.8828 1.9922 1.4844 0 2.832-0.42969 1.3477-0.42969 3.0859-1.4648v-2.6953z"/><path d="m-742.87 287.26q0-7.0117 3.9062-10.918t10.879-3.9062q7.1484 0 11.016 3.8477 3.8672 3.8281 3.8672 10.742 0 5.0195-1.6992 8.2422-1.6797 3.2031-4.8828 5-3.1836 1.7774-7.9492 1.7774-4.8438 0-8.0273-1.543-3.1641-1.543-5.1367-4.8828t-1.9726-8.3594zm8.8476 0.0391q0 4.3359 1.6016 6.2305 1.6211 1.8945 4.3945 1.8945 2.8516 0 4.4141-1.8555t1.5625-6.6602q0-4.043-1.6406-5.8984-1.6211-1.875-4.4141-1.875-2.6758 0-4.2969 1.8945t-1.6211 6.2695z"/></g></svg>
